<svg role="img" viewBox="0 0 24 24" xmlns="http://www.w3.org/2000/svg"><title>Sensor Tower</title><path d="M13.226 22.61c2.3-.2 4.943-1.376 6.826-3.554 2.113-2.447 2.96-5.3 2.564-8.5-.653-5.258-5.53-9.967-11.985-9.189a10.65 10.65 0 0 0-9.273 11.9c.646 5.635 5.388 9.047 9.403 9.33q.023-.284.043-.566c.042-.558.086-1.114.123-1.671.024-.333.033-.666.056-.998.03-.4.076-.8.105-1.2q.067-.917.125-1.833.067-.998.137-1.997.037-.498.08-.998c.016-.193.024-.382-.19-.485-.03-.014-.05-.046-.074-.07a1.13 1.13 0 0 1-.15-1.395c.233-.39.826-.666 1.318-.491.464.163.736.484.804.963.062.435-.108.787-.45 1.055l-.14.104.68 9.598zM12.022 24c-3.35-.067-6.226-1.217-8.563-3.586-2.392-2.43-3.553-5.392-3.453-8.798.09-3.159 1.275-5.89 3.528-8.116C6.008 1.05 9.025-.123 12.512.01 19 .268 24.097 5.652 24 12.145c-.027 3.085-1.124 5.798-3.248 8.046-2.367 2.503-5.31 3.734-8.72 3.807m2.79-5.957c-.078-.611-.158-1.215-.214-1.826 1.404-.926 2.21-2.22 2.336-3.89a4.76 4.76 0 0 0-1.18-3.557 4.956 4.956 0 0 0-6.985-.564 5 5 0 0 0-.42.403c-1.06 1.14-1.488 2.512-1.28 4.054.205 1.54 1.006 2.712 2.304 3.562q-.105.904-.214 1.807c-2.323-1.008-4.164-3.65-3.837-6.721a6.694 6.694 0 1 1 13.32 1.332 6.69 6.69 0 0 1-3.833 5.4"/></svg>